<svg xmlns="http://www.w3.org/2000/svg" version="1.1" xmlns:xlink="http://www.w3.org/1999/xlink" xmlns:svgjs="http://svgjs.dev/svgjs" width="1440" height="1080" preserveAspectRatio="none" viewBox="0 0 1440 1080">
    <g mask="url(&quot;#SvgjsMask1057&quot;)" fill="none">
        <rect width="1440" height="1080" x="0" y="0" fill="rgba(249, 249, 249, 1)"></rect>
        <rect width="504" height="504" clip-path="url(&quot;#SvgjsClipPath1058&quot;)" x="228.69" y="-120.62" fill="url(&quot;#SvgjsPattern1059&quot;)" transform="rotate(92.33, 480.69, 131.38)"></rect>
        <rect width="165.36" height="165.36" clip-path="url(&quot;#SvgjsClipPath1060&quot;)" x="729.69" y="219.94" fill="url(&quot;#SvgjsPattern1061&quot;)" transform="rotate(354.03, 812.37, 302.62)"></rect>
        <circle r="98.09331997903789" cx="555.8" cy="361.41" stroke="rgba(0, 0, 0, 1)" stroke-width="1.83" stroke-dasharray="3, 2"></circle>
        <path d="M787.65 163.92L782.5 152.2 792.8 144.6 787.65 132.87 797.96 125.27 792.8 113.55 803.11 105.95M795.38 165.98L790.23 154.26 800.53 146.66 795.38 134.94 805.69 127.33 800.53 115.61 810.84 108.01M803.11 168.05L797.96 156.32 808.26 148.72 803.11 137 813.42 129.4 808.26 117.67 818.57 110.07" stroke="#d3b714" stroke-width="1" stroke-dasharray="3, 2"></path>
        <rect width="528" height="528" clip-path="url(&quot;#SvgjsClipPath1062&quot;)" x="1041.72" y="-247.17" fill="url(&quot;#SvgjsPattern1063&quot;)" transform="rotate(188.68, 1305.72, 16.83)"></rect>
        <rect width="154.56" height="154.56" clip-path="url(&quot;#SvgjsClipPath1064&quot;)" x="510.6" y="775.38" fill="url(&quot;#SvgjsPattern1065&quot;)" transform="rotate(329.92, 587.88, 852.66)"></rect>
    </g>
    <defs>
        <mask id="SvgjsMask1057">
            <rect width="1440" height="1080" fill="#ffffff"></rect>
        </mask>
        <pattern x="0" y="0" width="6" height="6" patternUnits="userSpaceOnUse" id="SvgjsPattern1059">
            <path d="M3 1L3 5M1 3L5 3" stroke="#e73635" fill="none" stroke-width="1"></path>
        </pattern>
        <clipPath id="SvgjsClipPath1058">
            <circle r="126" cx="480.69" cy="131.38"></circle>
        </clipPath>
        <pattern x="0" y="0" width="165.36" height="13.78" patternUnits="userSpaceOnUse" id="SvgjsPattern1061">
            <rect width="165.36" height="6.89" x="0" y="0" fill="#e73635"></rect>
            <rect width="165.36" height="6.89" x="0" y="6.89" fill="rgba(0, 0, 0, 0)"></rect>
        </pattern>
        <clipPath id="SvgjsClipPath1060">
            <circle r="41.34" cx="812.37" cy="302.62"></circle>
        </clipPath>
        <pattern x="0" y="0" width="6" height="6" patternUnits="userSpaceOnUse" id="SvgjsPattern1063">
            <path d="M3 1L3 5M1 3L5 3" stroke="#037b0b" fill="none" stroke-width="1.7"></path>
        </pattern>
        <clipPath id="SvgjsClipPath1062">
            <circle r="132" cx="1305.72" cy="16.83"></circle>
        </clipPath>
        <pattern x="0" y="0" width="12.88" height="12.88" patternUnits="userSpaceOnUse" id="SvgjsPattern1065">
            <path d="M0 12.88L6.44 0L12.88 12.88" stroke="#037b0b" fill="none"></path>
        </pattern>
        <clipPath id="SvgjsClipPath1064">
            <circle r="38.64" cx="587.88" cy="852.66"></circle>
        </clipPath>
    </defs>
</svg>