<svg xmlns="http://www.w3.org/2000/svg" version="1.1" xmlns:xlink="http://www.w3.org/1999/xlink" xmlns:svgjs="http://svgjs.dev/svgjs" width="1440" height="1080" preserveAspectRatio="none" viewBox="0 0 1440 1080"><g mask="url(&quot;#SvgjsMask1082&quot;)" fill="none"><rect width="1440" height="1080" x="0" y="0" fill="rgba(25, 25, 25, 1)"></rect><circle r="171.2891662853041" cx="936.19" cy="94.82" stroke="#e73635" stroke-width="1.43" stroke-dasharray="3, 3"></circle><path d="M1415.12 876.7a5.6 5.6 0 1 0 11.18 0.77 5.6 5.6 0 1 0-11.18-0.77zM1431.09 877.79a5.6 5.6 0 1 0 11.17 0.77 5.6 5.6 0 1 0-11.17-0.77zM1447.05 878.88a5.6 5.6 0 1 0 11.17 0.77 5.6 5.6 0 1 0-11.17-0.77zM1463.01 879.97a5.6 5.6 0 1 0 11.18 0.77 5.6 5.6 0 1 0-11.18-0.77z" fill="#d3b714"></path><path d="M1315.48 461.45L1328.07 463.75 1328.59 476.55 1341.18 478.86 1341.7 491.65 1354.29 493.96 1354.81 506.76" stroke="#e73635" stroke-width="1.49" stroke-dasharray="4, 4"></path><rect width="336" height="336" clip-path="url(&quot;#SvgjsClipPath1083&quot;)" x="1148.96" y="658.43" fill="url(&quot;#SvgjsPattern1084&quot;)" transform="rotate(216.06, 1316.96, 826.43)"></rect><path d="M526.25 1000.12L535.75 991.55 546.21 998.94 555.72 990.36 566.18 997.76 575.68 989.18 586.14 996.58" stroke="#e73635" stroke-width="2.18" stroke-dasharray="3, 2"></path><rect width="381.44" height="381.44" clip-path="url(&quot;#SvgjsClipPath1085&quot;)" x="1162.88" y="-154.23" fill="url(&quot;#SvgjsPattern1086&quot;)" transform="rotate(181.22, 1353.6, 36.49)"></rect></g><defs><mask id="SvgjsMask1082"><rect width="1440" height="1080" fill="#ffffff"></rect></mask><pattern x="0" y="0" width="336" height="6" patternUnits="userSpaceOnUse" id="SvgjsPattern1084"><rect width="336" height="3" x="0" y="0" fill="#e73635"></rect><rect width="336" height="3" x="0" y="3" fill="rgba(0, 0, 0, 0)"></rect></pattern><clipPath id="SvgjsClipPath1083"><circle r="84" cx="1316.96" cy="826.43"></circle></clipPath><pattern x="0" y="0" width="381.44" height="11.92" patternUnits="userSpaceOnUse" id="SvgjsPattern1086"><rect width="381.44" height="5.96" x="0" y="0" fill="#037b0b"></rect><rect width="381.44" height="5.96" x="0" y="5.96" fill="rgba(0, 0, 0, 0)"></rect></pattern><clipPath id="SvgjsClipPath1085"><circle r="95.36" cx="1353.6" cy="36.49"></circle></clipPath></defs></svg>