<svg xmlns="http://www.w3.org/2000/svg" version="1.1" xmlns:xlink="http://www.w3.org/1999/xlink" xmlns:svgjs="http://svgjs.dev/svgjs" width="1440" height="1080" preserveAspectRatio="none" viewBox="0 0 1440 1080"><g mask="url(&quot;#SvgjsMask1055&quot;)" fill="none"><rect width="1440" height="1080" x="0" y="0" fill="rgba(253, 253, 253, 1)"></rect><rect width="102.4" height="102.4" clip-path="url(&quot;#SvgjsClipPath1056&quot;)" x="4.26" y="604.13" fill="url(&quot;#SvgjsPattern1057&quot;)" transform="rotate(325.16, 55.46, 655.33)"></rect><circle r="140.55027671878716" cx="961.18" cy="762.7" stroke="#e73635" stroke-width="1" stroke-dasharray="2, 2"></circle><path d="M26.32 76.66a5.6 5.6 0 1 0 5.12-9.96 5.6 5.6 0 1 0-5.12 9.96zM33.63 62.43a5.6 5.6 0 1 0 5.12-9.97 5.6 5.6 0 1 0-5.12 9.97zM40.95 48.19a5.6 5.6 0 1 0 5.11-9.96 5.6 5.6 0 1 0-5.11 9.96zM48.26 33.96a5.6 5.6 0 1 0 5.11-9.96 5.6 5.6 0 1 0-5.11 9.96zM25.93 112.43a5.6 5.6 0 1 0 5.12-9.96 5.6 5.6 0 1 0-5.12 9.96zM33.24 98.2a5.6 5.6 0 1 0 5.12-9.96 5.6 5.6 0 1 0-5.12 9.96zM40.56 83.97a5.6 5.6 0 1 0 5.11-9.96 5.6 5.6 0 1 0-5.11 9.96zM47.87 69.74a5.6 5.6 0 1 0 5.11-9.97 5.6 5.6 0 1 0-5.11 9.97z" stroke="#037b0b" stroke-width="1.21" stroke-dasharray="3, 2"></path><path d="M773.72 459.26L769.89 447.04 780.97 440.63 777.14 428.41 788.23 421.99 784.4 409.77 795.48 403.35M781.17 462.17L777.34 449.95 788.43 443.53 784.6 431.31 795.68 424.89 791.85 412.67 802.94 406.25" stroke="#037b0b" stroke-width="2.95" stroke-dasharray="4, 4"></path><path d="M379.4 562.72a5.6 5.6 0 1 0-8.33-7.49 5.6 5.6 0 1 0 8.33 7.49zM367.49 552.02a5.6 5.6 0 1 0-8.33-7.48 5.6 5.6 0 1 0 8.33 7.48zM355.59 541.33a5.6 5.6 0 1 0-8.33-7.48 5.6 5.6 0 1 0 8.33 7.48zM343.69 530.64a5.6 5.6 0 1 0-8.34-7.48 5.6 5.6 0 1 0 8.34 7.48zM413.9 572.2a5.6 5.6 0 1 0-8.34-7.49 5.6 5.6 0 1 0 8.34 7.49zM401.99 561.5a5.6 5.6 0 1 0-8.33-7.48 5.6 5.6 0 1 0 8.33 7.48zM390.09 550.81a5.6 5.6 0 1 0-8.33-7.48 5.6 5.6 0 1 0 8.33 7.48zM378.19 540.12a5.6 5.6 0 1 0-8.34-7.48 5.6 5.6 0 1 0 8.34 7.48zM448.39 581.67a5.6 5.6 0 1 0-8.33-7.48 5.6 5.6 0 1 0 8.33 7.48zM436.49 570.98a5.6 5.6 0 1 0-8.33-7.48 5.6 5.6 0 1 0 8.33 7.48zM424.59 560.29a5.6 5.6 0 1 0-8.34-7.48 5.6 5.6 0 1 0 8.34 7.48zM412.68 549.6a5.6 5.6 0 1 0-8.33-7.48 5.6 5.6 0 1 0 8.33 7.48z" stroke="rgba(0, 0, 0, 1)" stroke-width="1" stroke-dasharray="3, 2"></path><rect width="504" height="504" clip-path="url(&quot;#SvgjsClipPath1058&quot;)" x="-243.21" y="-119.9" fill="url(&quot;#SvgjsPattern1059&quot;)" transform="rotate(4.01, 8.79, 132.1)"></rect></g><defs><mask id="SvgjsMask1055"><rect width="1440" height="1080" fill="#ffffff"></rect></mask><pattern x="0" y="0" width="10.24" height="10.24" patternUnits="userSpaceOnUse" id="SvgjsPattern1057"><path d="M5.12 1L5.12 9.24M1 5.12L9.24 5.12" stroke="#037b0b" fill="none" stroke-width="1"></path></pattern><clipPath id="SvgjsClipPath1056"><circle r="25.6" cx="55.46" cy="655.33"></circle></clipPath><pattern x="0" y="0" width="6" height="6" patternUnits="userSpaceOnUse" id="SvgjsPattern1059"><path d="M3 1L3 5M1 3L5 3" stroke="#e73635" fill="none" stroke-width="1"></path></pattern><clipPath id="SvgjsClipPath1058"><circle r="126" cx="8.79" cy="132.1"></circle></clipPath></defs></svg>