<svg xmlns="http://www.w3.org/2000/svg" version="1.1" xmlns:xlink="http://www.w3.org/1999/xlink" xmlns:svgjs="http://svgjs.dev/svgjs" width="1440" height="1080" preserveAspectRatio="none" viewBox="0 0 1440 1080">
    <g mask="url(&quot;#SvgjsMask1153&quot;)" fill="none">
        <rect width="1440" height="1080" x="0" y="0" fill="rgba(25, 25, 25, 1)"></rect>
        <circle r="162.17815788700148" cx="712.37" cy="794.62" stroke="rgba(0, 0, 0, 1)" stroke-width="1"></circle>
        <path d="M970.8 874.89L968.68 862.26 980.54 857.42 978.42 844.79 990.27 839.95 988.15 827.32 1000.01 822.48M977.79 878.79L975.67 866.16 987.52 861.32 985.4 848.69 997.26 843.85 995.14 831.22 1007 826.38M984.78 882.68L982.66 870.05 994.51 865.21 992.39 852.58 1004.25 847.74 1002.13 835.11 1013.98 830.27" stroke="rgba(0, 0, 0, 1)" stroke-width="1" stroke-dasharray="4, 4"></path>
        <circle r="93.05066142706228" cx="1218.12" cy="600.5" stroke="#d3b714" stroke-width="1.99" stroke-dasharray="4, 4"></circle>
        <path d="M226.99 685.13a5.6 5.6 0 1 0 10.68 3.35 5.6 5.6 0 1 0-10.68-3.35zM242.25 689.92a5.6 5.6 0 1 0 10.68 3.36 5.6 5.6 0 1 0-10.68-3.36zM257.51 694.72a5.6 5.6 0 1 0 10.69 3.35 5.6 5.6 0 1 0-10.69-3.35zM272.78 699.51a5.6 5.6 0 1 0 10.68 3.36 5.6 5.6 0 1 0-10.68-3.36zM191.66 690.8a5.6 5.6 0 1 0 10.69 3.36 5.6 5.6 0 1 0-10.69-3.36zM206.93 695.6a5.6 5.6 0 1 0 10.68 3.35 5.6 5.6 0 1 0-10.68-3.35zM222.19 700.39a5.6 5.6 0 1 0 10.69 3.36 5.6 5.6 0 1 0-10.69-3.36zM237.45 705.19a5.6 5.6 0 1 0 10.69 3.35 5.6 5.6 0 1 0-10.69-3.35zM156.34 696.47a5.6 5.6 0 1 0 10.68 3.36 5.6 5.6 0 1 0-10.68-3.36zM171.6 701.27a5.6 5.6 0 1 0 10.69 3.36 5.6 5.6 0 1 0-10.69-3.36zM186.87 706.06a5.6 5.6 0 1 0 10.68 3.36 5.6 5.6 0 1 0-10.68-3.36zM202.13 710.86a5.6 5.6 0 1 0 10.69 3.36 5.6 5.6 0 1 0-10.69-3.36z" stroke="rgba(0, 0, 0, 1)" stroke-width="2.1" stroke-dasharray="3, 2"></path>
        <path d="M608.74 946.86 L742.4300000000001 1011.82L731.0295371284518 923.8954628715483z" fill="#e73635"></path>
        <rect width="108.8" height="108.8" clip-path="url(&quot;#SvgjsClipPath1154&quot;)" x="-26.18" y="385.65" fill="url(&quot;#SvgjsPattern1155&quot;)" transform="rotate(246.69, 28.22, 440.05)"></rect>
    </g>
    <defs>
        <mask id="SvgjsMask1153">
            <rect width="1440" height="1080" fill="#ffffff"></rect>
        </mask>
        <pattern x="0" y="0" width="10.88" height="10.88" patternUnits="userSpaceOnUse" id="SvgjsPattern1155">
            <path d="M5.44 1L5.44 9.88M1 5.44L9.88 5.44" stroke="#e73635" fill="none" stroke-width="3.64"></path>
        </pattern>
        <clipPath id="SvgjsClipPath1154">
            <circle r="27.2" cx="28.22" cy="440.05"></circle>
        </clipPath>
    </defs>
</svg>